<svg viewBox="0 0 60 60" fill="none" xmlns="http://www.w3.org/2000/svg">
    <g clip-path="url(#clip0_3_1834)">
        <path d="M17.6954 13.1226H42.4199C43.7847 13.1226 44.8924 12.0317 44.8924 10.6876V5.81762C44.8924 4.47351 43.7847 3.38263 42.4199 3.38263H17.6954C16.3306 3.38263 15.2229 4.47351 15.2229 5.81762V10.6876C15.2229 12.0317 16.3306 13.1226 17.6954 13.1226Z" fill="white"/>
        <path d="M53.3297 47.7428L39.9513 31.7278V15.557H35.0064V17.992H30.0614V22.862H35.0064V25.297H27.589V30.167H35.0064V32.602C35.0064 33.1669 35.2066 33.7148 35.5701 34.1482L42.4213 42.3419H17.7066L24.5528 34.1482C24.9163 33.7148 25.1165 33.1669 25.1165 32.602V15.557H20.1716V31.7302L6.67696 47.8937C5.0847 50.1339 4.89432 53.0316 6.17505 55.4568C7.45578 57.8821 9.97769 59.3869 12.7543 59.3869H47.3686C50.1452 59.3869 52.6671 57.8821 53.9478 55.4544C55.2286 53.0316 55.0382 50.1339 53.3297 47.7428Z" fill="white"/>
    </g>
    <defs>
        <clipPath id="clip0_3_1834">
            <rect width="59.3389" height="58.4399" fill="white" transform="translate(0.387939 0.933044)"/>
        </clipPath>
    </defs>
</svg>
