<svg viewBox="6 5 48 48.5" fill="none" xmlns="http://www.w3.org/2000/svg">
    <g clip-path="url(#clip0_3_2903)">
        <path d="M29.8893 35.2926C33.1168 35.2926 35.7333 32.6761 35.7333 29.4486C35.7333 26.2211 33.1168 23.6046 29.8893 23.6046C26.6617 23.6046 24.0453 26.2211 24.0453 29.4486C24.0453 32.6761 26.6617 35.2926 29.8893 35.2926Z" fill="white"/>
        <path d="M46.9305 7.53418H12.8406C10.1523 7.53418 7.97058 9.71593 7.97058 12.4042V46.4941C7.97058 49.1823 10.1523 51.3641 12.8406 51.3641H46.9305C49.6187 51.3641 51.8005 49.1823 51.8005 46.4941V12.4042C51.8005 9.71593 49.6187 7.53418 46.9305 7.53418ZM44.4955 32.1057H40.1369C39.8982 33.0164 39.5427 33.8711 39.0874 34.6698L41.8389 37.4213L37.8553 41.4025L35.1013 38.651C34.305 39.1088 33.4504 39.4618 32.5372 39.698V44.0591H27.2265V39.698C26.3158 39.4618 25.4611 39.1088 24.6649 38.651L21.9109 41.4025L17.9297 37.4213L20.6837 34.6698C20.2283 33.8711 19.8728 33.0164 19.6342 32.1057H15.2756V26.7925H19.6342C19.8728 25.8819 20.2283 25.0296 20.6837 24.2285L17.9297 21.4794L21.9158 17.4957L24.6698 20.2473C25.466 19.7895 26.3207 19.4364 27.2314 19.2002V14.8392H32.5421V19.2002C33.4552 19.4364 34.3099 19.7919 35.1062 20.2473L37.8601 17.4957L41.8438 21.4794L39.0922 24.2309C39.5476 25.032 39.9031 25.8843 40.1417 26.795H44.4955V32.1057Z" fill="white"/>
    </g>
    <defs>
        <clipPath id="clip0_3_2903">
            <rect width="58.4399" height="58.4399" fill="white" transform="translate(0.665771 0.22876)"/>
        </clipPath>
    </defs>
</svg>

