<svg viewBox="4 3 51 52" fill="none" xmlns="http://www.w3.org/2000/svg">
    <g clip-path="url(#clip0_3_2404)">
        <path d="M41.6297 27.0373V17.2973C41.6297 10.584 36.168 5.12231 29.4548 5.12231C22.7415 5.12231 17.2798 10.584 17.2798 17.2973V27.0373C14.594 27.0373 12.4098 29.219 12.4098 31.9072V48.9522C12.4098 51.638 14.594 53.8222 17.2798 53.8222H41.6297C44.3155 53.8222 46.4997 51.638 46.4997 48.9522V31.9072C46.4997 29.219 44.3155 27.0373 41.6297 27.0373ZM29.4548 44.0822C27.4386 44.0822 25.8023 42.4459 25.8023 40.4297C25.8023 38.4135 27.4361 36.7772 29.4548 36.7772C31.4734 36.7772 33.1072 38.4135 33.1072 40.4297C33.1072 42.4459 31.4709 44.0822 29.4548 44.0822ZM36.7597 27.0373H22.1498V17.2973C22.1498 13.2698 25.4273 9.9923 29.4548 9.9923C33.4822 9.9923 36.7597 13.2698 36.7597 17.2973V27.0373Z" fill="white"/>
    </g>
    <defs>
        <clipPath id="clip0_3_2404">
            <rect width="58.4399" height="58.4399" fill="white" transform="translate(0.234741 0.251953)"/>
        </clipPath>
    </defs>
</svg>
