<svg viewBox="0 0 60 59" fill="none" xmlns="http://www.w3.org/2000/svg">
    <g clip-path="url(#clip0_3_2920)">
        <path d="M36.2646 14.8381C36.2646 13.998 36.379 13.1896 36.5592 12.4031H5.82715V17.2731H36.5592C36.379 16.4866 36.2646 15.6781 36.2646 14.8381Z" fill="white"/>
        <path d="M36.2646 44.0582C36.2646 43.2181 36.379 42.4097 36.5592 41.6232H5.82715V46.4932H36.5592C36.379 45.7066 36.2646 44.8982 36.2646 44.0582Z" fill="white"/>
        <path d="M11.9146 29.4482C11.9146 28.6081 12.0291 27.7997 12.2093 27.0132H5.82715V31.8832H12.2093C12.0291 31.0967 11.9146 30.2883 11.9146 29.4482Z" fill="white"/>
        <path d="M33.5347 27.0125C33.7149 27.799 33.8293 28.6074 33.8293 29.4474C33.8293 30.2875 33.7149 31.0959 33.5347 31.8824H54.5268V27.0125H33.5347Z" fill="white"/>
        <path d="M47.2222 22.1437C51.2566 22.1437 54.5272 18.8731 54.5272 14.8387C54.5272 10.8042 51.2566 7.53369 47.2222 7.53369C43.1878 7.53369 39.9172 10.8042 39.9172 14.8387C39.9172 18.8731 43.1878 22.1437 47.2222 22.1437Z" fill="white"/>
        <path d="M22.8721 36.7538C26.9066 36.7538 30.1771 33.4832 30.1771 29.4488C30.1771 25.4144 26.9066 22.1438 22.8721 22.1438C18.8377 22.1438 15.5671 25.4144 15.5671 29.4488C15.5671 33.4832 18.8377 36.7538 22.8721 36.7538Z" fill="white"/>
        <path d="M47.2222 51.3637C51.2566 51.3637 54.5272 48.0932 54.5272 44.0588C54.5272 40.0243 51.2566 36.7538 47.2222 36.7538C43.1878 36.7538 39.9172 40.0243 39.9172 44.0588C39.9172 48.0932 43.1878 51.3637 47.2222 51.3637Z" fill="white"/>
    </g>
    <defs>
        <clipPath id="clip0_3_2920">
            <rect width="58.4399" height="58.4399" fill="white" transform="translate(0.957275 0.22876)"/>
        </clipPath>
    </defs>
</svg>
